<?xml version="1.0" standalone="no"?>
<!DOCTYPE svg PUBLIC "-//W3C//DTD SVG 20010904//EN"
 "http://www.w3.org/TR/2001/REC-SVG-20010904/DTD/svg10.dtd">
<svg version="1.0" xmlns="http://www.w3.org/2000/svg"
 width="418.000000pt" height="418.000000pt" viewBox="0 0 418.000000 418.000000"
 preserveAspectRatio="xMidYMid meet">
<metadata>
Created by potrace 1.14, written by Peter Selinger 2001-2017
</metadata>
<g transform="translate(0.000000,418.000000) scale(0.100000,-0.100000)"
fill="#000000" stroke="none">
<path d="M2297 3422 c-21 -23 -22 -56 -2 -72 21 -17 19 -34 -13 -130 l-29 -84
-44 4 c-203 22 -387 -36 -527 -165 -39 -36 -81 -81 -92 -100 -20 -32 -26 -35
-68 -35 -129 0 -296 -32 -373 -71 -50 -25 -105 -89 -113 -132 -20 -105 57
-210 243 -333 l74 -49 26 35 c14 19 53 67 86 108 33 41 67 85 75 98 25 40 76
57 187 62 216 10 510 -59 726 -171 120 -62 167 -109 167 -167 0 -21 9 -86 20
-142 11 -57 20 -113 20 -125 0 -21 4 -23 63 -23 84 0 232 32 293 63 93 47 135
119 119 203 -17 95 -137 212 -326 317 -43 24 -47 30 -54 74 -22 154 -104 309
-211 398 -52 43 -149 102 -203 121 -25 10 -47 18 -49 19 -1 1 7 46 18 100 11
53 20 99 20 101 0 2 6 4 13 4 24 1 50 29 50 56 0 49 -63 72 -96 36z m71 -34
c2 -20 -2 -28 -19 -33 -29 -9 -53 15 -44 44 10 34 59 25 63 -11z m-57 -310
c92 -34 154 -72 223 -137 96 -91 163 -215 181 -334 l7 -47 -78 33 c-302 129
-703 228 -966 238 -43 2 -58 6 -58 17 0 8 33 48 74 87 80 80 174 132 282 160
89 22 250 14 335 -17z m-451 -313 c322 -49 594 -132 855 -260 239 -118 363
-229 371 -332 4 -46 3 -47 -7 -14 -15 49 -81 131 -136 171 -103 74 -133 91
-144 84 -7 -4 -9 -3 -6 3 8 12 -54 46 -193 106 -502 216 -1158 297 -1417 176
-34 -16 -71 -41 -82 -56 -27 -33 -27 -18 -1 24 31 52 142 98 280 117 67 9 376
-4 480 -19z"/>
<path d="M1783 2158 c-54 -74 -75 -117 -68 -138 7 -23 195 -150 222 -150 38 0
129 125 119 164 -3 12 -28 37 -56 55 -31 20 -50 40 -50 51 0 22 -74 70 -108
70 -13 0 -34 -18 -59 -52z m144 -36 c3 -14 25 -36 54 -54 27 -16 49 -36 49
-43 0 -24 -74 -125 -91 -125 -20 0 -199 118 -199 131 0 6 23 44 51 85 l50 75
40 -23 c23 -13 42 -32 46 -46z"/>
<path d="M2392 2018 c-14 -14 -16 -44 -2 -53 5 -3 7 -12 3 -20 -3 -8 -2 -23 2
-32 4 -10 8 -39 10 -65 2 -44 -1 -50 -31 -73 -65 -49 -69 -147 -9 -210 28 -30
39 -35 78 -35 39 0 49 5 75 35 37 41 48 91 32 139 -12 37 -71 96 -95 96 -8 0
-16 10 -17 23 -1 12 -3 37 -5 55 -2 17 -4 47 -6 65 -2 17 -4 44 -5 60 -2 29
-11 34 -30 15z m102 -274 c34 -34 33 -40 -6 -48 -35 -7 -48 4 -48 42 0 14 -4
21 -11 16 -6 -3 -9 -19 -5 -35 4 -23 2 -29 -12 -29 -9 0 -28 -3 -41 -7 -21 -5
-23 -3 -16 18 10 35 52 69 84 69 17 0 39 -10 55 -26z m25 -136 c-14 -34 -58
-57 -94 -50 -31 6 -63 41 -71 78 l-6 29 60 3 c33 2 73 7 88 11 26 7 29 5 32
-17 2 -13 -2 -38 -9 -54z"/>
<path d="M1437 1954 c-4 -4 -7 -14 -7 -22 0 -7 -9 -21 -20 -30 -11 -10 -27
-50 -40 -101 -17 -69 -19 -89 -9 -112 6 -16 17 -29 24 -29 26 0 62 47 69 91 5
24 10 38 13 32 9 -24 20 -13 26 24 4 22 2 42 -5 51 -7 7 -12 32 -12 55 -1 29
-6 43 -16 45 -9 1 -19 0 -23 -4z m23 -24 c0 -5 -2 -10 -4 -10 -3 0 -8 5 -11
10 -3 6 -1 10 4 10 6 0 11 -4 11 -10z m-14 -135 c-15 -62 -21 -75 -37 -75 -30
0 -33 25 -14 98 20 73 32 89 54 67 13 -13 12 -24 -3 -90z"/>
<path d="M1764 1729 c-26 -9 -41 -29 -168 -218 -63 -95 -96 -154 -96 -172 0
-32 18 -49 153 -139 53 -36 97 -70 97 -77 0 -27 -25 -23 -81 12 -58 36 -84 41
-60 11 16 -20 297 -206 311 -206 24 0 6 22 -51 61 -55 37 -60 43 -46 57 14 14
27 8 131 -61 126 -84 158 -93 193 -54 12 12 69 93 127 179 110 162 124 199 91
232 -23 23 -533 366 -558 375 -12 5 -32 5 -43 0z m306 -204 c151 -102 278
-192 282 -200 5 -8 4 -23 -2 -35 -13 -24 21 -44 -361 215 -251 169 -251 169
-229 187 12 10 25 18 29 18 4 0 131 -83 281 -185z m-300 75 c0 -18 -65 -110
-77 -110 -21 0 -14 23 22 73 33 44 55 59 55 37z m-100 -152 c-1 -18 -25 -48
-39 -48 -14 0 -14 15 1 40 14 22 38 27 38 8z m169 -278 c160 -107 289 -199
288 -204 -2 -5 -10 -14 -19 -19 -11 -8 -55 17 -189 107 -96 65 -222 150 -281
189 -94 63 -108 75 -108 100 0 16 4 27 9 25 6 -1 141 -91 300 -198z m-39 -85
c0 -19 -13 -25 -30 -15 -11 7 -11 11 -1 24 15 17 31 13 31 -9z"/>
<path d="M1069 1261 c-22 -17 -26 -18 -52 -5 -15 8 -32 12 -37 9 -18 -11 -110
-153 -110 -169 0 -19 218 -166 246 -166 16 0 36 22 73 79 28 43 51 81 51 85 0
3 -9 14 -21 25 -18 16 -19 22 -8 42 11 21 9 26 -24 54 -19 16 -49 38 -65 47
-29 17 -31 17 -53 -1z m79 -36 c54 -37 57 -41 43 -63 -7 -11 -21 -6 -65 23
-53 36 -65 53 -49 68 10 11 15 9 71 -28z m-83 -125 c3 -5 -1 -10 -9 -10 -9 0
-16 5 -16 10 0 6 4 10 9 10 6 0 13 -4 16 -10z"/>
<path d="M2450 911 c-31 -5 -35 -10 -38 -40 -3 -32 23 -308 34 -358 4 -20 11
-23 47 -23 24 0 52 6 62 14 18 13 18 18 0 201 -18 184 -27 217 -58 214 -7 -1
-28 -4 -47 -8z m77 -116 c6 -55 14 -142 18 -192 l7 -93 -46 0 c-25 0 -46 5
-46 10 0 6 8 11 18 11 15 1 15 2 -1 6 -10 3 -16 11 -13 18 3 8 0 16 -7 18 -7
3 -1 9 13 15 24 10 24 11 3 11 -27 1 -31 20 -5 22 16 1 16 2 0 6 -21 5 -24 23
-5 24 10 0 10 2 0 6 -18 7 -16 21 5 26 12 3 10 5 -7 6 -20 1 -21 3 -11 16 9
10 9 15 1 15 -21 0 -11 20 12 21 l22 2 -23 4 c-12 2 -20 8 -17 13 3 5 0 12 -6
16 -8 4 -4 12 12 21 22 13 22 14 3 10 -17 -4 -21 0 -21 19 0 15 6 24 16 25 13
1 13 2 -1 6 -25 6 -22 31 5 36 59 12 61 9 74 -98z"/>
</g>
</svg>
